<?xml version="1.0" encoding="UTF-8" standalone="no"?>
<svg
   xmlns:dc="http://purl.org/dc/elements/1.1/"
   xmlns:cc="http://creativecommons.org/ns#"
   xmlns:rdf="http://www.w3.org/1999/02/22-rdf-syntax-ns#"
   xmlns:svg="http://www.w3.org/2000/svg"
   xmlns="http://www.w3.org/2000/svg"
   viewBox="0 0 613.56 324.93332"
   height="324.93332"
   width="613.56"
   xml:space="preserve"
   id="svg2"
   version="1.1"><metadata
     id="metadata8"><rdf:RDF><cc:Work
         rdf:about=""><dc:format>image/svg+xml</dc:format><dc:type
           rdf:resource="http://purl.org/dc/dcmitype/StillImage" /></cc:Work></rdf:RDF></metadata><defs
     id="defs6" /><g
     transform="matrix(1.3333333,0,0,-1.3333333,0,324.93333)"
     id="g10"><g
       transform="scale(0.1)"
       id="g12"><path
         id="path14"
         style="fill:#0061D5;fill-opacity:1;fill-rule:nonzero;stroke:none"
         d="m 2375.34,343.73 c -284.5,0 -515.18,230.469 -515.18,514.969 0,284.261 230.68,514.681 515.18,514.681 284.38,0 514.94,-230.42 514.94,-514.681 0,-284.5 -230.56,-514.969 -514.94,-514.969 m -1516.926,0 c -284.437,0 -515.285,230.411 -515.285,514.86 0,284.37 230.848,514.79 515.285,514.79 284.406,0 514.766,-230.42 514.766,-514.681 0,-284.5 -230.36,-514.969 -514.766,-514.969 M 2375.34,1717.09 c -328.53,0 -614.42,-184.79 -758.4,-456.11 -144.02,271.32 -429.77,456.11 -758.526,456.11 -193.047,0 -371.387,-63.85 -515.285,-171.71 v 723.3 c -1.699,93.46 -77.918,168.28 -171.715,168.28 C 77.6289,2436.96 2.14844,2362.14 0,2268.68 V 844.391 H 0.191406 C 7.75391,376.73 388.844,0 858.414,0 1187.17,0 1472.92,184.961 1616.94,456.02 1760.92,184.961 2046.81,0 2375.34,0 c 473.99,0 858.5,384.359 858.5,858.699 0,474.121 -384.51,858.391 -858.5,858.391" /><path
         id="path16"
         style="fill:#0061D5;fill-opacity:1;fill-rule:nonzero;stroke:none"
         d="m 4566,287.422 -466.66,572.398 467.23,573.51 c 59.06,75.66 42.13,181.29 -39.42,237.42 -81.65,56.6 -196.2,42.09 -259.38,-31.32 v 0.12 l -401.96,-492.64 -401.62,492.64 v -0.12 c -62.52,73.41 -177.79,87.92 -259.19,31.32 -81.4,-56.18 -98.41,-161.76 -39.05,-237.42 h -0.16 L 3632.17,859.82 3165.79,287.422 h 0.16 C 3106.59,211.551 3123.6,106.219 3205,49.8711 3286.4,-6.5 3401.67,7.85156 3464.19,81.3711 L 3865.81,573.328 4267.2,81.3711 c 63.24,-73.51954 177.77,-87.8711 259.41,-31.5 81.56,56.3479 98.57,161.6799 39.39,237.5509" /></g></g></svg>