<svg id="Layer_1" data-name="Layer 1" xmlns="http://www.w3.org/2000/svg" xmlns:xlink="http://www.w3.org/1999/xlink" viewBox="0 0 591.52 85.31"><defs><style>.cls-1{fill:none;}.cls-2{font-size:66px;font-family:Gotham Rounded;}.cls-2,.cls-4{fill:#fff;}.cls-3{clip-path:url(#clip-path);}</style><clipPath id="clip-path" transform="translate(-376.08 -377.34)"><rect class="cls-1" x="376.08" y="377.34" width="133.59" height="70.75"/></clipPath></defs><title>Box Consulting Logo</title><text class="cls-2" transform="translate(136.59 70.52)">CONSULTING</text><g class="cls-3"><path class="cls-4" d="M445,438.11A14.95,14.95,0,1,1,460,423.16,15,15,0,0,1,445,438.11m-44,0a14.95,14.95,0,1,1,14.94-14.95A15,15,0,0,1,401,438.11m44-39.87a24.91,24.91,0,0,0-22,13.24,24.93,24.93,0,0,0-37-8.26v-21a5,5,0,0,0-10,0v41.35h0A24.92,24.92,0,0,0,423,434.85a24.92,24.92,0,1,0,22-36.61" transform="translate(-376.08 -377.34)"/><path class="cls-4" d="M508.64,439.75l-13.55-16.62,13.56-16.65a4.72,4.72,0,0,0-1.14-6.89,5.75,5.75,0,0,0-7.53.91h0l-11.67,14.3-11.66-14.3h0a5.74,5.74,0,0,0-7.52-.91,4.72,4.72,0,0,0-1.13,6.89h0l13.54,16.65L468,439.75h0a4.72,4.72,0,0,0,1.13,6.9,5.74,5.74,0,0,0,7.52-.91l11.66-14.28L500,445.73a5.75,5.75,0,0,0,7.53.91,4.72,4.72,0,0,0,1.14-6.9" transform="translate(-376.08 -377.34)"/></g></svg>